# xmcd CD database file
#
# Track frame offsets:
#	180
#	21199
#	37859
#	50769
#	56685
#	66385
#	86073
#	91133
#	114199
#	126372
#	141252
#	162017
#	173119
#	187244
#	198986
#
# Disc length: 2897 seconds
#
# Revision: 0
# Processed by: cddbd v1.4PL0 Copyright (c) Steve Scherf et al.
# Submitted via: NeoAudio 9.9.9
#
DISCID=d20b4f0f
DTITLE=Jim Boggio's Sonoma Swamp Dogs - Jim Boggio's Sonoma Swamp Dogs
DYEAR=1995
DGENRE=Blues
TTITLE0=Swamp Box
TTITLE1=Zydeco Beat
TTITLE2=Mojo Mama
TTITLE3=Zydecola
TTITLE4=New Cajun King
TTITLE5=Oh Josephine
TTITLE6=Waltz BeBe
TTITLE7=Miss Ann
TTITLE8=New Orleans
TTITLE9=Zydeco Man
TTITLE10=E. Cotati Blues
TTITLE11=Louisiana Waltz
TTITLE12=Swamp Gypsy
TTITLE13=Bee Line
TTITLE14=Linda Lu
EXTD=YEAR: 1995
EXTT0=
EXTT1=
EXTT2=
EXTT3=
EXTT4=
EXTT5=
EXTT6=
EXTT7=
EXTT8=
EXTT9=
EXTT10=
EXTT11=
EXTT12=
EXTT13=
EXTT14=
PLAYORDER=
